<svg id="visual" viewBox="0 0 900 600" width="900" height="600" xmlns="http://www.w3.org/2000/svg" xmlns:xlink="http://www.w3.org/1999/xlink" version="1.1"><path d="M0 391L21.5 391.8C43 392.7 86 394.3 128.8 403.5C171.7 412.7 214.3 429.3 257.2 434.7C300 440 343 434 385.8 423.2C428.7 412.3 471.3 396.7 514.2 396.2C557 395.7 600 410.3 642.8 421.2C685.7 432 728.3 439 771.2 430.2C814 421.3 857 396.7 878.5 384.3L900 372L900 601L878.5 601C857 601 814 601 771.2 601C728.3 601 685.7 601 642.8 601C600 601 557 601 514.2 601C471.3 601 428.7 601 385.8 601C343 601 300 601 257.2 601C214.3 601 171.7 601 128.8 601C86 601 43 601 21.5 601L0 601Z" fill="#2feaa8"></path><path d="M0 418L21.5 419.7C43 421.3 86 424.7 128.8 428.3C171.7 432 214.3 436 257.2 436C300 436 343 432 385.8 431.5C428.7 431 471.3 434 514.2 441.2C557 448.3 600 459.7 642.8 461C685.7 462.3 728.3 453.7 771.2 448.7C814 443.7 857 442.3 878.5 441.7L900 441L900 601L878.5 601C857 601 814 601 771.2 601C728.3 601 685.7 601 642.8 601C600 601 557 601 514.2 601C471.3 601 428.7 601 385.8 601C343 601 300 601 257.2 601C214.3 601 171.7 601 128.8 601C86 601 43 601 21.5 601L0 601Z" fill="#00dbdd"></path><path d="M0 460L21.5 457C43 454 86 448 128.8 444.3C171.7 440.7 214.3 439.3 257.2 438.7C300 438 343 438 385.8 442C428.7 446 471.3 454 514.2 455.3C557 456.7 600 451.3 642.8 453.8C685.7 456.3 728.3 466.7 771.2 474.3C814 482 857 487 878.5 489.5L900 492L900 601L878.5 601C857 601 814 601 771.2 601C728.3 601 685.7 601 642.8 601C600 601 557 601 514.2 601C471.3 601 428.7 601 385.8 601C343 601 300 601 257.2 601C214.3 601 171.7 601 128.8 601C86 601 43 601 21.5 601L0 601Z" fill="#00c5f1"></path><path d="M0 525L21.5 520.7C43 516.3 86 507.7 128.8 501C171.7 494.3 214.3 489.7 257.2 488.3C300 487 343 489 385.8 497.7C428.7 506.3 471.3 521.7 514.2 529.8C557 538 600 539 642.8 539.5C685.7 540 728.3 540 771.2 533.2C814 526.3 857 512.7 878.5 505.8L900 499L900 601L878.5 601C857 601 814 601 771.2 601C728.3 601 685.7 601 642.8 601C600 601 557 601 514.2 601C471.3 601 428.7 601 385.8 601C343 601 300 601 257.2 601C214.3 601 171.7 601 128.8 601C86 601 43 601 21.5 601L0 601Z" fill="#00abf7"></path><path d="M0 548L21.5 547.2C43 546.3 86 544.7 128.8 541.3C171.7 538 214.3 533 257.2 532.2C300 531.3 343 534.7 385.8 535.5C428.7 536.3 471.3 534.7 514.2 533.7C557 532.7 600 532.3 642.8 538.5C685.7 544.7 728.3 557.3 771.2 559.5C814 561.7 857 553.3 878.5 549.2L900 545L900 601L878.5 601C857 601 814 601 771.2 601C728.3 601 685.7 601 642.8 601C600 601 557 601 514.2 601C471.3 601 428.7 601 385.8 601C343 601 300 601 257.2 601C214.3 601 171.7 601 128.8 601C86 601 43 601 21.5 601L0 601Z" fill="#028cf3"></path></svg>