<svg version="1.0" xmlns="http://www.w3.org/2000/svg"
    viewBox="0 0 980.000000 980.000000"
    preserveAspectRatio="xMidYMid meet">

    <g transform="translate(0.000000,980.000000) scale(0.100000,-0.100000)"
        fill="white" stroke="none">
        <path
            d="M4660 9784 c-248 -30 -436 -71 -609 -134 -721 -258 -1269 -763 -1564
-1441 -273 -625 -295 -1319 -62 -1955 53 -146 183 -403 270 -534 199 -300 447
-550 740 -749 751 -510 1698 -591 2532 -218 463 207 845 529 1123 945 521 779
589 1769 180 2607 -126 259 -271 464 -480 679 -414 426 -890 676 -1481 777
-98 16 -176 22 -369 24 -135 2 -261 1 -280 -1z m590 -778 c237 -38 551 -177
778 -345 323 -239 590 -628 685 -996 46 -180 52 -236 52 -500 0 -281 -12 -375
-71 -571 -79 -264 -200 -475 -397 -692 -293 -324 -659 -529 -1062 -592 -124
-20 -332 -28 -475 -19 -368 23 -687 137 -970 348 -93 70 -274 243 -350 336
-303 370 -451 842 -412 1312 51 610 342 1109 837 1436 208 137 476 246 720
293 94 18 531 12 665 -10z" />
        <path
            d="M2395 4567 c-359 -147 -1034 -749 -1427 -1272 -167 -223 -289 -425
-447 -745 -300 -605 -444 -1118 -506 -1800 -25 -281 -15 -452 34 -549 28 -53
80 -111 141 -156 l48 -35 4665 0 4665 0 55 45 c85 69 125 122 148 195 27 87
34 241 20 425 -56 699 -205 1260 -491 1840 -237 482 -490 849 -857 1241 -321
344 -864 761 -1076 826 -135 41 -213 13 -489 -175 -214 -145 -314 -205 -487
-291 -309 -155 -658 -266 -981 -311 -157 -23 -721 -32 -902 -15 -222 20 -429
66 -683 153 -318 109 -510 206 -865 439 -206 135 -291 185 -344 204 -64 23
-132 17 -221 -19z m5190 -1038 c189 -164 522 -523 676 -729 256 -345 493 -832
624 -1285 71 -246 110 -444 140 -708 l6 -57 -4130 0 c-2272 0 -4131 2 -4131 5
0 2 9 73 20 157 106 826 457 1586 1026 2220 185 206 651 628 694 628 7 0 78
-41 159 -92 470 -296 1017 -506 1576 -603 320 -57 988 -57 1310 -1 602 105
1133 315 1655 654 l75 49 100 -76 c54 -41 144 -114 200 -162z" />
    </g>
</svg>