<svg xmlns="http://www.w3.org/2000/svg" xmlns:xlink="http://www.w3.org/1999/xlink" version="1.1"
    width="1080" height="1080" viewBox="0 0 1080 1080" xml:space="preserve">
<desc>Created with Fabric.js 5.2.4</desc>
<defs>
</defs>
<g transform="matrix(1 0 0 1 540 540)" id="d612f8df-3f65-4b6b-8936-9a51398009c3"  >
</g>
<g transform="matrix(1 0 0 1 540 540)" id="249dc406-2161-4a26-ab94-d53ed8006c6f"  >
<rect style="stroke: none; stroke-width: 1; stroke-dasharray: none; stroke-linecap: butt; stroke-dashoffset: 0; stroke-linejoin: miter; stroke-miterlimit: 4; fill: rgb(255,255,255); fill-rule: nonzero; opacity: 1; visibility: hidden;" vector-effect="non-scaling-stroke"  x="-540" y="-540" rx="0" ry="0" width="1080" height="1080" />
</g>
<g transform="matrix(0 0 0 0 0 0)"  >
<g style=""   >
</g>
</g>
<g transform="matrix(0 0 0 0 0 0)"  >
<g style=""   >
</g>
</g>
<g transform="matrix(33.75 0 0 33.75 540 540)"  >
<path style="stroke: none; stroke-width: 1; stroke-dasharray: none; stroke-linecap: round; stroke-dashoffset: 0; stroke-linejoin: round; stroke-miterlimit: 4; fill: rgb(0,0,0); fill-rule: nonzero; opacity: 1;"  transform=" translate(-16, -16)" d="M 7.38 5.555 L 22.972 4.188 C 23.875471977871904 4.109837751331979 24.772986350445915 4.39380834420088 25.46707133400404 4.977432356314604 C 26.161156317562167 5.5610563684283285 26.594946845023145 6.3965185907198965 26.673 7.300000000000002 L 28.05 23.06 C 28.216422098284262 24.94207086307009 26.826007969660214 26.602868164163205 24.944000000000003 26.77 L 9.352 28.137 C 8.448204846748142 28.215432671201143 7.550290352423509 27.931454551452788 6.855955775485351 27.34759081887351 C 6.161621198547193 26.76372708629423 5.727796685468562 25.927850119590303 5.65 25.024 L 4.275 9.265 C 4.1085779017157416 7.38292913692991 5.498992030339787 5.722131835836796 7.3809999999999985 5.555000000000001 z M 7.58 7.829 C 7.278483822252571 7.8554135973352865 6.999848195303963 8.000647490355117 6.805511606558892 8.23268837865401 C 6.611175017813822 8.464729266952903 6.517091683492795 8.764527569966408 6.5440000000000005 9.065999999999999 L 7.9190000000000005 24.825 C 7.944934787685551 25.126308697511945 8.089531134166906 25.404965055510466 8.32096467480902 25.599639297963073 C 8.552398215451134 25.79431354041568 8.851701302776412 25.889050709395505 9.153 25.863 L 24.744 24.495 C 25.045326906903306 24.468579419709915 25.323800559019435 24.323486700862837 25.518108785155746 24.091667234159672 C 25.712417011292054 23.859847767456507 25.806628321709024 23.56030861980657 25.78 23.259 L 24.404 7.4990000000000006 C 24.34947493850967 6.871945635672617 23.797076861651338 6.407734285832998 23.17 6.462000000000001 L 7.58 7.829 z M 10.834 13.219 C 10.387062599096213 13.256348956275529 9.943608091348583 13.114510993523018 9.601304127419308 12.824724898032207 C 9.259000163490033 12.534938802541395 9.045922517085872 12.120972832053075 9.009 11.674 C 8.967860466830471 11.22710375065542 9.105950601233085 10.782170482131582 9.392887190575667 10.437096413902593 C 9.67982377991825 10.092022345673604 10.092098207873583 9.875079277766972 10.539 9.834 C 10.986097119981778 9.79665954985367 11.429693282722997 9.938632709781503 11.772025663915867 10.22863044201393 C 12.11435804510874 10.518628174246356 12.32732810048799 10.932847547586604 12.363999999999999 11.379999999999997 C 12.449082879223235 12.31024748901564 11.764204171832237 13.133444837311096 10.834 13.219 z M 20.899 12.335999999999999 C 20.451898196491484 12.37362820915502 20.00818458634467 12.231917620609062 19.66565947316628 11.942103108089562 C 19.323134359987893 11.652288595570061 19.109915813524143 11.238161187421976 19.073 10.790999999999999 C 19.03186046683047 10.34410375065542 19.169950601233083 9.89917048213158 19.456887190575667 9.554096413902592 C 19.74382377991825 9.209022345673603 20.156098207873583 8.99207927776697 20.603 8.950999999999999 C 21.05009711998178 8.91365954985367 21.493693282722997 9.055632709781502 21.83602566391587 9.34563044201393 C 22.17835804510874 9.635628174246355 22.391328100487993 10.049847547586603 22.428 10.496999999999996 C 22.469139533169532 10.943896249344577 22.33104939876692 11.388829517868416 22.044112809424334 11.733903586097405 C 21.75717622008175 12.078977654326394 21.344901792126414 12.295920722233028 20.898 12.336999999999998 z M 11.72 23.373 C 11.273062599096214 23.41034895627553 10.829608091348586 23.26851099352302 10.48730412741931 22.97872489803221 C 10.145000163490035 22.688938802541397 9.931922517085873 22.27497283205308 9.895000000000001 21.828000000000003 C 9.853860466830472 21.381103750655424 9.991950601233086 20.936170482131583 10.278887190575668 20.591096413902598 C 10.56582377991825 20.24602234567361 10.978098207873584 20.029079277766975 11.425 19.988000000000003 C 11.871937400903787 19.950651043724474 12.315391908651415 20.092489006476985 12.65769587258069 20.382275101967796 C 12.999999836509966 20.672061197458607 13.213077482914127 21.086027167946924 13.25 21.533 C 13.29113953316953 21.97989624934458 13.153049398766916 22.42482951786842 12.866112809424333 22.769903586097406 C 12.57917622008175 23.114977654326395 12.166901792126417 23.33192072223303 11.72 23.373 z M 21.785 22.490000000000002 C 21.33806259909621 22.52734895627553 20.894608091348584 22.38551099352302 20.55230412741931 22.09572489803221 C 20.210000163490033 21.805938802541398 19.99692251708587 21.391972832053078 19.96 20.945 C 19.91886046683047 20.49810375065542 20.056950601233083 20.05317048213158 20.343887190575668 19.70809641390259 C 20.630823779918252 19.363022345673603 21.043098207873584 19.146079277766972 21.490000000000002 19.105 C 21.93709711998178 19.06765954985367 22.380693282722998 19.209632709781506 22.72302566391587 19.49963044201393 C 23.06535804510874 19.789628174246356 23.278328100487993 20.203847547586605 23.315 20.650999999999996 C 23.356139533169532 21.09789624934458 23.21804939876692 21.54282951786842 22.931112809424334 21.88790358609741 C 22.64417622008175 22.232977654326397 22.231901792126415 22.449920722233028 21.785 22.491 z M 16.309 17.855000000000004 C 15.861902880018222 17.89234045014633 15.418306717277002 17.7503672902185 15.075974336084132 17.460369557986073 C 14.733641954891262 17.170371825753648 14.520671899512008 16.7561524524134 14.484000000000002 16.309000000000005 C 14.398917120776765 15.378752510984363 15.083795828167764 14.555555162688908 16.014 14.470000000000004 C 16.46093740090379 14.432651043724475 16.90439190865142 14.574489006476986 17.246695872580695 14.864275101967797 C 17.58899983650997 15.154061197458608 17.80207748291413 15.568027167946928 17.839000000000002 16.015000000000004 C 17.880139533169533 16.461896249344584 17.74204939876692 16.906829517868424 17.455112809424335 17.251903586097413 C 17.16817622008175 17.596977654326402 16.755901792126416 17.813920722233032 16.309 17.855000000000004 z M 29.183 6.823 L 29.168 6.825 C 28.92573348595502 6.848948097368651 28.68391137774092 6.775363585797962 28.496046672423528 6.620530037459453 C 28.308181967106137 6.465696489120943 28.18976487359567 6.242380559709843 28.167 6 C 27.902 3.456 25.644000000000002 1.6100000000000003 23.122 1.8789999999999996 L 23.115 1.8789999999999996 C 22.872784050596522 1.9029661212814188 22.63098896021847 1.8295455687885376 22.442993851664415 1.6749467968838054 C 22.25499874311036 1.520348024979073 22.136263381261326 1.2972844530856085 22.113 1.0549999999999997 C 22.056713800324694 0.5512520921402498 22.417626104156152 0.09653832320407829 22.921 0.03699999999999992 L 22.923 0.0369999999999997 L 22.93 0.0359999999999997 C 24.627636917925663 -0.1440562183663974 26.326702468952863 0.362998528527689 27.647999999999996 1.4439999999999982 C 28.975796862025696 2.5313339736754052 29.819523403907418 4.0997953721542935 29.995 5.806999999999999 C 30.05000358496597 6.311402813340571 29.687119217571386 6.765455174514089 29.183 6.823 z M 8.547 32 L 8.539000000000001 32 C 6.831466830241037 32.02958903234225 5.183034914383944 31.374969280697822 3.961000000000002 30.182 C 2.7328181090042367 28.98218501570591 2.0283577074449823 27.34575225636954 2.0010000000000003 25.628999999999998 C 1.9886888715199245 25.12198342026478 2.3890172211855383 24.70063224106365 2.896000000000001 24.686999999999998 L 2.9120000000000013 24.686999999999998 C 3.4150000000000014 24.679 3.8290000000000015 25.086999999999996 3.8380000000000014 25.596999999999998 C 3.8820000000000014 28.156 5.972000000000001 30.191999999999997 8.508000000000001 30.147 L 8.514000000000001 30.147 C 8.757643887797753 30.144602069003803 8.99224626684099 30.23916356742941 9.16612382535478 30.409852432852876 C 9.340001383868573 30.580541298276337 9.438888438760317 30.813353462073852 9.441 31.057 C 9.453877642755035 31.564022878172867 9.053988405451358 31.985829981950687 8.547 32 z" stroke-linecap="round" />
</g>
</svg>