<svg xmlns="http://www.w3.org/2000/svg" xmlns:xlink="http://www.w3.org/1999/xlink" version="1.1"
    width="1080" height="1080" viewBox="0 0 1080 1080" xml:space="preserve">
<desc>Created with Fabric.js 5.2.4</desc>
<defs>
</defs>
<g transform="matrix(1 0 0 1 540 540)" id="d612f8df-3f65-4b6b-8936-9a51398009c3"  >
</g>
<g transform="matrix(1 0 0 1 540 540)" id="249dc406-2161-4a26-ab94-d53ed8006c6f"  >
<rect style="stroke: none; stroke-width: 1; stroke-dasharray: none; stroke-linecap: butt; stroke-dashoffset: 0; stroke-linejoin: miter; stroke-miterlimit: 4; fill: rgb(255,255,255); fill-rule: nonzero; opacity: 1; visibility: hidden;" vector-effect="non-scaling-stroke"  x="-540" y="-540" rx="0" ry="0" width="1080" height="1080" />
</g>
<g transform="matrix(0 0 0 0 0 0)"  >
<g style=""   >
</g>
</g>
<g transform="matrix(54.91 0 0 54.91 540 560.67)"  >
<path style="stroke: rgb(0,0,0); stroke-width: 2; stroke-dasharray: none; stroke-linecap: butt; stroke-dashoffset: 0; stroke-linejoin: miter; stroke-miterlimit: 4; fill: rgb(0,0,0); fill-opacity: 0; fill-rule: evenodd; opacity: 1;" vector-effect="non-scaling-stroke"  transform=" translate(-12.48, -11.52)" d="M 12.48 5.52 C 10.688875967343728 5.51767743321109 8.990826392506735 6.317536567425577 7.852 7.699999999999999 C 7.718781049404961 7.875033943959698 7.500464444892783 7.963139415296493 7.283072349985385 7.929600670425765 C 7.0656802550779885 7.8960619255550375 6.884068009151646 7.7462563648612 6.80979534698497 7.53921109930218 C 6.735522684818295 7.332165833743159 6.7804980377979085 7.101077254385449 6.9270000000000005 6.937 C 8.721449060856925 4.764887450182567 11.617725311065236 3.8386195458434287 14.33958493504884 4.566356138583217 C 17.061444559032445 5.294092731323005 19.10900149454726 7.542180573013074 19.58 10.32 L 18.36 10.32 C 17.78862071911903 7.526641637381455 15.331197097088314 5.520581537764545 12.479999999999997 5.5200000000000005 Z M 6.6000000000000005 12.719999999999999 C 7.063283366700507 14.984874597690231 8.78615672116938 16.78235898295293 11.029368515255745 17.341187461106713 C 13.27258030934211 17.900015939260495 15.63734970118196 17.120844305909134 17.108999999999998 15.338000000000001 C 17.242218950595042 15.162966056040304 17.460535555107217 15.074860584703512 17.677927650014613 15.10839932957424 C 17.89531974492201 15.141938074444969 18.07693199084835 15.291743635138806 18.151204653015025 15.498788900697823 C 18.225477315181703 15.705834166256842 18.18050196220209 15.936922745614549 18.034000000000002 16.101 C 16.239952653763602 18.273698030762716 13.34363785688684 19.20063196513935 10.621467593324379 18.4733000810628 C 7.899297329761918 17.745968196986247 5.851287376480137 15.497968830312631 5.379999999999999 12.719999999999999 L 6.6 12.72 Z" stroke-linecap="round" />
</g>
<g transform="matrix(0 0 0 0 0 0)"  >
<g style=""   >
</g>
</g>
<g transform="matrix(54.91 0 0 54.91 540.51 556.54)"  >
<path style="stroke: none; stroke-width: 1; stroke-dasharray: none; stroke-linecap: butt; stroke-dashoffset: 0; stroke-linejoin: miter; stroke-miterlimit: 4; fill: rgb(0,0,0); fill-rule: nonzero; opacity: 1;" vector-effect="non-scaling-stroke"  transform=" translate(-12.48, -11.52)" d="M 16.72 10.32 L 21.439 10.32 C 21.555299648889303 10.320198527077752 21.661006272549713 10.387596426422606 21.71025810181748 10.492952513378007 C 21.75950993108525 10.598308600333409 21.74343205318025 10.722638278865345 21.669 10.812000000000001 L 19.310000000000002 13.644000000000002 C 19.252999543453004 13.712064273822469 19.168779487594524 13.75138639715742 19.080000000000002 13.75138639715742 C 18.99122051240548 13.75138639715742 18.907000456547 13.712064273822469 18.85 13.644000000000002 L 16.490000000000002 10.812000000000001 C 16.415567946819753 10.722638278865345 16.39949006891475 10.598308600333409 16.448741898182522 10.492952513378007 C 16.49799372745029 10.387596426422606 16.6037003511107 10.320198527077752 16.720000000000002 10.32 Z M 3.5199999999999996 12.72 L 8.239999999999998 12.72 C 8.3562996488893 12.71980147292225 8.462006272549708 12.652403573577395 8.511258101817477 12.547047486621993 C 8.560509931085246 12.441691399666592 8.544432053180248 12.317361721134658 8.469999999999999 12.228000000000002 L 6.11 9.396 C 6.052999543453003 9.327935726177534 5.968779487594522 9.288613602842583 5.880000000000001 9.288613602842583 C 5.791220512405479 9.288613602842583 5.707000456546997 9.327935726177534 5.65 9.396 L 3.2900000000000005 12.228000000000002 C 3.2155679468197502 12.317361721134658 3.199490068914751 12.441691399666594 3.2487418981825202 12.547047486621995 C 3.2979937274502893 12.652403573577397 3.403700351110698 12.719801472922251 3.5200000000000005 12.720000000000002 Z" stroke-linecap="round" />
</g>
<g transform="matrix(19.47 0 0 19.47 540.21 556.69)"  >
<path style="stroke: none; stroke-width: 1; stroke-dasharray: none; stroke-linecap: butt; stroke-dashoffset: 0; stroke-linejoin: miter; stroke-miterlimit: 4; fill: rgb(0,0,0); fill-rule: nonzero; opacity: 1;" vector-effect="non-scaling-stroke"  transform=" translate(-12, -12)" d="M 10 12 C 10 10.895430500338414 10.895430500338414 10 12 10 C 13.104569499661586 10 14 10.895430500338414 14 12 C 14 13.104569499661586 13.104569499661586 14 12 14 C 10.895430500338414 14 10 13.104569499661586 10 12 Z" stroke-linecap="round" />
</g>
<g transform="matrix(19.47 0 0 19.47 636.24 651.71)"  >
<path style="stroke: none; stroke-width: 1; stroke-dasharray: none; stroke-linecap: butt; stroke-dashoffset: 0; stroke-linejoin: miter; stroke-miterlimit: 4; fill: rgb(0,0,0); fill-rule: nonzero; opacity: 1;" vector-effect="non-scaling-stroke"  transform=" translate(-16.95, -16.89)" d="M 16.945 14.89 C 15.840430500338414 14.89 14.945 15.785430500338414 14.945 16.89 C 14.945 17.994569499661587 15.840430500338414 18.89 16.945 18.89 C 18.049569499661587 18.89 18.945 17.994569499661587 18.945 16.89 C 18.945 15.785430500338414 18.049569499661587 14.89 16.945 14.89 Z" stroke-linecap="round" />
</g>
<g transform="matrix(19.47 0 0 19.47 444.09 460.57)"  >
<path style="stroke: none; stroke-width: 1; stroke-dasharray: none; stroke-linecap: butt; stroke-dashoffset: 0; stroke-linejoin: miter; stroke-miterlimit: 4; fill: rgb(0,0,0); fill-rule: nonzero; opacity: 1;" vector-effect="non-scaling-stroke"  transform=" translate(-7.06, -7.05)" d="M 5.056 7.055 C 5.056 5.950430500338412 5.951430500338414 5.055 7.056000000000001 5.055 C 8.160569499661587 5.055 9.056000000000001 5.950430500338412 9.056000000000001 7.054999999999999 C 9.056000000000001 8.159569499661586 8.160569499661587 9.055 7.056000000000001 9.055 C 5.9514305003384145 9.055 5.056000000000001 8.159569499661586 5.056000000000001 7.055 Z" stroke-linecap="round" />
</g>
<g transform="matrix(19.47 0 0 19.47 540.53 557.01)"  >
<path style="stroke: none; stroke-width: 1; stroke-dasharray: none; stroke-linecap: butt; stroke-dashoffset: 0; stroke-linejoin: miter; stroke-miterlimit: 4; fill: rgb(0,0,0); fill-rule: evenodd; opacity: 1;" vector-effect="non-scaling-stroke"  transform=" translate(-12, -12)" d="M 1 4 C 1 2.3431457505076194 2.3431457505076194 1 4 1 L 20 1 C 21.65685424949238 1 23 2.3431457505076185 23 3.999999999999999 L 23 20 C 23 21.65685424949238 21.65685424949238 23 20 23 L 4 23 C 2.3431457505076194 23 1 21.65685424949238 1 20 L 1 4 Z M 4 3 L 20 3 C 20.552284749830793 3 21 3.4477152501692063 21 4 L 21 20 C 21 20.552284749830793 20.552284749830793 21 20 21 L 4 21 C 3.4477152501692068 21 3 20.552284749830793 3 20 L 3 4 C 3 3.4477152501692068 3.4477152501692068 3 4 3 Z" stroke-linecap="round" />
</g>
</svg>