<?xml version="1.0" standalone="no"?>
<!DOCTYPE svg PUBLIC "-//W3C//DTD SVG 20010904//EN"
 "http://www.w3.org/TR/2001/REC-SVG-20010904/DTD/svg10.dtd">
<svg version="1.0" xmlns="http://www.w3.org/2000/svg"
 width="512.000000pt" height="512.000000pt" viewBox="0 0 512.000000 512.000000"
 preserveAspectRatio="xMidYMid meet">

<g transform="translate(0.000000,512.000000) scale(0.100000,-0.100000)"
fill="#000000" stroke="none">
<path d="M2320 4789 c-817 -83 -1405 -591 -1707 -1474 -35 -103 -83 -283 -103
-392 l-12 -61 -52 -17 c-97 -32 -169 -78 -252 -160 -64 -63 -90 -98 -123 -165
-91 -185 -94 -379 -9 -563 54 -117 163 -237 261 -288 27 -14 37 -25 33 -37
-11 -39 -29 -424 -30 -649 -1 -229 0 -243 20 -269 11 -15 33 -37 48 -48 27
-21 40 -21 567 -24 l539 -3 58 -36 c81 -52 282 -146 387 -181 407 -135 834
-134 1245 5 92 30 297 127 373 176 l57 36 539 3 c527 3 540 3 567 24 15 11 37
33 48 48 20 26 21 40 20 269 -1 220 -19 609 -30 648 -3 10 10 23 35 37 145 82
271 258 307 432 19 88 14 225 -12 310 -58 198 -240 384 -430 440 l-40 12 -28
125 c-154 706 -510 1253 -1008 1552 -338 202 -813 296 -1268 250z m-636 -581
c-276 -286 -432 -565 -507 -909 -14 -63 -28 -142 -32 -176 -8 -73 3 -68 -177
-79 l-107 -6 19 69 c141 508 430 923 796 1141 48 28 90 52 92 52 3 0 -35 -42
-84 -92z m972 -925 c129 -127 255 -216 435 -306 278 -141 584 -219 987 -252
l82 -7 0 -252 c0 -363 -17 -512 -82 -716 -131 -409 -422 -746 -819 -946 -85
-42 -274 -106 -379 -128 -413 -86 -852 -1 -1202 231 -358 239 -593 589 -689
1028 -19 88 -22 140 -26 442 l-5 341 43 6 c24 3 85 8 134 11 210 14 489 75
694 152 262 97 541 278 682 442 24 28 45 51 45 51 1 0 46 -44 100 -97z m-2016
-940 c0 -195 10 -354 26 -422 5 -24 4 -24 -52 -18 -111 11 -219 90 -267 195
-30 64 -30 196 0 262 39 87 116 155 209 183 91 29 84 45 84 -200z m3966 182
c67 -30 129 -93 162 -163 34 -76 36 -184 4 -256 -50 -112 -151 -187 -270 -202
-52 -7 -53 -6 -48 17 16 68 26 227 26 421 l0 217 38 -6 c20 -3 60 -16 88 -28z
m-3813 -1035 l38 -90 -11 -158 c-6 -86 -13 -185 -16 -219 l-6 -63 -79 0 -79 0
5 143 c4 78 10 209 16 290 5 82 9 157 9 168 0 16 7 19 43 19 l42 0 38 -90z"/>
<path d="M1680 2538 c-59 -40 -82 -84 -78 -146 8 -93 66 -147 158 -147 97 0
155 58 155 155 0 92 -54 150 -147 158 -44 3 -59 0 -88 -20z"/>
<path d="M3280 2538 c-59 -40 -82 -84 -78 -146 8 -93 66 -147 158 -147 97 0
155 58 155 155 0 92 -54 150 -147 158 -44 3 -59 0 -88 -20z"/>
<path d="M2000 1898 c-58 -39 -80 -82 -80 -153 0 -153 71 -317 190 -435 87
-87 179 -140 296 -170 345 -88 701 134 779 485 40 178 -9 282 -137 293 -44 3
-59 0 -87 -20 -56 -38 -74 -71 -82 -148 -14 -130 -80 -227 -189 -279 -78 -37
-182 -37 -260 0 -109 52 -173 145 -189 279 -14 109 -60 160 -153 168 -44 3
-59 0 -88 -20z"/>
</g>
</svg>
