<svg width="46" height="46" fill="currentColor" viewBox="0 0 24 24" xmlns="http://www.w3.org/2000/svg">
  <path fill-rule="evenodd" d="M10.125 17a6.875 6.875 0 1 0 0-13.75 6.875 6.875 0 0 0 0 13.75Zm8.125-6.875a8.125 8.125 0 1 1-16.25 0 8.125 8.125 0 0 1 16.25 0Z" clip-rule="evenodd"></path>
  <path d="M14.93 16.678c.037.05.077.098.122.144l4.813 4.813a1.25 1.25 0 1 0 1.768-1.768l-4.812-4.812a1.256 1.256 0 0 0-.144-.125 8.176 8.176 0 0 1-1.747 1.75v-.002Z"></path>
  <path fill-rule="evenodd" d="M5.75 10.125a.625.625 0 0 1 .625-.625h7.5a.625.625 0 1 1 0 1.25h-7.5a.625.625 0 0 1-.625-.625Z" clip-rule="evenodd"></path>
</svg>